<svg xmlns="http://www.w3.org/2000/svg" width="180" height="48" viewBox="0 0 180 48" fill="none">
  <path d="M24 8C35.0457 8 44 16.9543 44 28C44 39.0457 35.0457 48 24 48C12.9543 48 4 39.0457 4 28C4 16.9543 12.9543 8 24 8Z" fill="#0F172A"/>
  <path d="M24 12C32.8366 12 40 19.1634 40 28C40 36.8366 32.8366 44 24 44" stroke="#7C3AED" stroke-width="3" stroke-linecap="round"/>
  <path d="M24 44C19.5817 44 16 40.4183 16 36C16 31.5817 19.5817 28 24 28C28.4183 28 32 31.5817 32 36C32 40.4183 28.4183 44 24 44Z" stroke="#7C3AED" stroke-width="3"/>
  <path d="M56.928 32V16.4H59.568V29.68H67.248V32H56.928ZM73.4498 32.24C72.1698 32.24 71.0178 31.968 69.9938 31.424C68.9698 30.88 68.1618 30.12 67.5698 29.144C66.9778 28.152 66.6818 27.016 66.6818 25.736C66.6818 24.456 66.9778 23.328 67.5698 22.352C68.1618 21.36 68.9698 20.592 69.9938 20.048C71.0178 19.504 72.1698 19.232 73.4498 19.232C74.7298 19.232 75.8818 19.504 76.9058 20.048C77.9298 20.592 78.7378 21.36 79.3298 22.352C79.9218 23.328 80.2178 24.456 80.2178 25.736C80.2178 27.016 79.9218 28.152 79.3298 29.144C78.7378 30.12 77.9298 30.88 76.9058 31.424C75.8818 31.968 74.7298 32.24 73.4498 32.24ZM73.4498 29.96C74.2578 29.96 74.9698 29.784 75.5858 29.432C76.2018 29.08 76.6818 28.576 77.0258 27.92C77.3698 27.264 77.5418 26.536 77.5418 25.736C77.5418 24.936 77.3698 24.208 77.0258 23.552C76.6818 22.896 76.2018 22.392 75.5858 22.04C74.9698 21.688 74.2578 21.512 73.4498 21.512C72.6418 21.512 71.9298 21.688 71.3138 22.04C70.6978 22.392 70.2178 22.896 69.8738 23.552C69.5298 24.208 69.3578 24.936 69.3578 25.736C69.3578 26.536 69.5298 27.264 69.8738 27.92C70.2178 28.576 70.6978 29.08 71.3138 29.432C71.9298 29.784 72.6418 29.96 73.4498 29.96ZM83.5367 32V19.472H86.0967V21.512H86.2447C86.5247 20.84 86.9887 20.312 87.6367 19.928C88.2847 19.544 89.0287 19.352 89.8687 19.352C90.7247 19.352 91.4687 19.552 92.1007 19.952C92.7327 20.336 93.1887 20.864 93.4687 21.536H93.5927C93.9047 20.88 94.4007 20.352 95.0807 19.952C95.7767 19.552 96.5847 19.352 97.5047 19.352C98.6847 19.352 99.6607 19.736 100.433 20.504C101.205 21.256 101.591 22.36 101.591 23.816V32H98.9547V24.28C98.9547 23.384 98.7127 22.736 98.2287 22.336C97.7447 21.936 97.1527 21.736 96.4527 21.736C95.6127 21.736 94.9527 21.984 94.4727 22.48C93.9927 22.96 93.7527 23.608 93.7527 24.424V32H91.1407V24.16C91.1407 23.36 90.9087 22.752 90.4447 22.336C89.9807 21.92 89.3967 21.712 88.6927 21.712C88.2247 21.712 87.8007 21.824 87.4207 22.048C87.0567 22.256 86.7647 22.56 86.5447 22.96C86.3247 23.344 86.2147 23.8 86.2147 24.328V32H83.5367ZM110.518 32.24C109.238 32.24 108.086 31.968 107.062 31.424C106.038 30.88 105.23 30.12 104.638 29.144C104.046 28.152 103.75 27.016 103.75 25.736C103.75 24.456 104.046 23.328 104.638 22.352C105.23 21.36 106.038 20.592 107.062 20.048C108.086 19.504 109.238 19.232 110.518 19.232C111.798 19.232 112.95 19.504 113.974 20.048C114.998 20.592 115.806 21.36 116.398 22.352C116.99 23.328 117.286 24.456 117.286 25.736C117.286 27.016 116.99 28.152 116.398 29.144C115.806 30.12 114.998 30.88 113.974 31.424C112.95 31.968 111.798 32.24 110.518 32.24ZM110.518 29.96C111.326 29.96 112.038 29.784 112.654 29.432C113.27 29.08 113.75 28.576 114.094 27.92C114.438 27.264 114.61 26.536 114.61 25.736C114.61 24.936 114.438 24.208 114.094 23.552C113.75 22.896 113.27 22.392 112.654 22.04C112.038 21.688 111.326 21.512 110.518 21.512C109.71 21.512 108.998 21.688 108.382 22.04C107.766 22.392 107.286 22.896 106.942 23.552C106.598 24.208 106.426 24.936 106.426 25.736C106.426 26.536 106.598 27.264 106.942 27.92C107.286 28.576 107.766 29.08 108.382 29.432C108.998 29.784 109.71 29.96 110.518 29.96ZM120.605 32V19.472H123.165V21.512H123.313C123.593 20.84 124.057 20.312 124.705 19.928C125.353 19.544 126.097 19.352 126.937 19.352C127.793 19.352 128.537 19.552 129.169 19.952C129.801 20.336 130.257 20.864 130.537 21.536H130.661C130.973 20.88 131.469 20.352 132.149 19.952C132.845 19.552 133.653 19.352 134.573 19.352C135.753 19.352 136.729 19.736 137.501 20.504C138.273 21.256 138.659 22.36 138.659 23.816V32H136.023V24.28C136.023 23.384 135.781 22.736 135.297 22.336C134.813 21.936 134.221 21.736 133.521 21.736C132.681 21.736 132.021 21.984 131.541 22.48C131.061 22.96 130.821 23.608 130.821 24.424V32H128.209V24.16C128.209 23.36 127.977 22.752 127.513 22.336C127.049 21.92 126.465 21.712 125.761 21.712C125.293 21.712 124.869 21.824 124.489 22.048C124.125 22.256 123.833 22.56 123.613 22.96C123.393 23.344 123.283 23.8 123.283 24.328V32H120.605ZM147.587 32.24C146.307 32.24 145.155 31.968 144.131 31.424C143.107 30.88 142.299 30.12 141.707 29.144C141.115 28.152 140.819 27.016 140.819 25.736C140.819 24.456 141.115 23.328 141.707 22.352C142.299 21.36 143.107 20.592 144.131 20.048C145.155 19.504 146.307 19.232 147.587 19.232C148.867 19.232 150.019 19.504 151.043 20.048C152.067 20.592 152.875 21.36 153.467 22.352C154.059 23.328 154.355 24.456 154.355 25.736C154.355 27.016 154.059 28.152 153.467 29.144C152.875 30.12 152.067 30.88 151.043 31.424C150.019 31.968 148.867 32.24 147.587 32.24ZM147.587 29.96C148.395 29.96 149.107 29.784 149.723 29.432C150.339 29.08 150.819 28.576 151.163 27.92C151.507 27.264 151.679 26.536 151.679 25.736C151.679 24.936 151.507 24.208 151.163 23.552C150.819 22.896 150.339 22.392 149.723 22.04C149.107 21.688 148.395 21.512 147.587 21.512C146.779 21.512 146.067 21.688 145.451 22.04C144.835 22.392 144.355 22.896 144.011 23.552C143.667 24.208 143.495 24.936 143.495 25.736C143.495 26.536 143.667 27.264 144.011 27.92C144.355 28.576 144.835 29.08 145.451 29.432C146.067 29.784 146.779 29.96 147.587 29.96Z" fill="white"/>
</svg>
